<mxfile host="app.diagrams.net" modified="2022-02-14T08:29:32.725Z" agent="5.0 (Macintosh; Intel Mac OS X 10_15_6) AppleWebKit/537.36 (KHTML, like Gecko) Chrome/78.0.3904.108 Safari/537.36" etag="gySR9YDv3-zXdXsRPWdi" version="16.5.6" type="github">
  <diagram id="wbruRTizKZBVsW1XgTU5" name="Page-1">
    <mxGraphModel dx="1261" dy="672" grid="1" gridSize="10" guides="1" tooltips="1" connect="1" arrows="1" fold="1" page="1" pageScale="1" pageWidth="827" pageHeight="1169" math="0" shadow="0">
      <root>
        <mxCell id="0" />
        <mxCell id="1" parent="0" />
        <mxCell id="G_c1bbBDKerHP6r1jU-_-3" value="功能" style="rounded=1;whiteSpace=wrap;html=1;shadow=1;glass=0;sketch=1;fillColor=#dae8fc;strokeColor=#6c8ebf;horizontal=1;verticalAlign=top;fontSize=16;fontStyle=1" vertex="1" parent="1">
          <mxGeometry x="170" y="450" width="440" height="390" as="geometry" />
        </mxCell>
        <mxCell id="G_c1bbBDKerHP6r1jU-_-2" value="域账号登录" style="rounded=1;whiteSpace=wrap;html=1;shadow=1;sketch=1;glass=1;fillColor=#fff2cc;strokeColor=#d6b656;fontSize=20;fontStyle=1" vertex="1" parent="1">
          <mxGeometry x="172" y="210" width="436" height="100" as="geometry" />
        </mxCell>
        <mxCell id="G_c1bbBDKerHP6r1jU-_-5" value="工作流管理" style="rounded=1;whiteSpace=wrap;html=1;shadow=1;glass=0;sketch=1;fillColor=#f8cecc;strokeColor=#b85450;verticalAlign=top;fontSize=16;fontStyle=1" vertex="1" parent="1">
          <mxGeometry x="220" y="490" width="350" height="260" as="geometry" />
        </mxCell>
        <mxCell id="G_c1bbBDKerHP6r1jU-_-6" value="审核管理" style="rounded=1;whiteSpace=wrap;html=1;shadow=1;glass=0;sketch=1;fillColor=#f8cecc;strokeColor=#b85450;fontSize=16;fontStyle=1" vertex="1" parent="1">
          <mxGeometry x="215" y="760" width="350" height="60" as="geometry" />
        </mxCell>
        <mxCell id="G_c1bbBDKerHP6r1jU-_-7" value="人员管理" style="rounded=1;whiteSpace=wrap;html=1;shadow=1;glass=0;sketch=1;fillColor=#e1d5e7;strokeColor=#9673a6;fontSize=16;fontStyle=1" vertex="1" parent="1">
          <mxGeometry x="260" y="520" width="120" height="60" as="geometry" />
        </mxCell>
        <mxCell id="G_c1bbBDKerHP6r1jU-_-8" value="流程管理" style="rounded=1;whiteSpace=wrap;html=1;shadow=1;glass=0;sketch=1;fillColor=#e1d5e7;strokeColor=#9673a6;verticalAlign=top;fontSize=16;fontStyle=1" vertex="1" parent="1">
          <mxGeometry x="400" y="520" width="146" height="220" as="geometry" />
        </mxCell>
        <mxCell id="G_c1bbBDKerHP6r1jU-_-9" value="角色管理" style="rounded=1;whiteSpace=wrap;html=1;shadow=1;glass=0;sketch=1;fillColor=#e1d5e7;strokeColor=#9673a6;fontSize=16;fontStyle=1" vertex="1" parent="1">
          <mxGeometry x="260" y="590" width="120" height="60" as="geometry" />
        </mxCell>
        <mxCell id="G_c1bbBDKerHP6r1jU-_-11" value="流程" style="rounded=1;whiteSpace=wrap;html=1;shadow=1;glass=0;sketch=1;fillColor=#d5e8d4;strokeColor=#82b366;fontSize=16;fontStyle=1" vertex="1" parent="1">
          <mxGeometry x="414" y="550" width="120" height="60" as="geometry" />
        </mxCell>
        <mxCell id="G_c1bbBDKerHP6r1jU-_-12" value="节点" style="rounded=1;whiteSpace=wrap;html=1;shadow=1;glass=0;sketch=1;fillColor=#d5e8d4;strokeColor=#82b366;fontSize=16;fontStyle=1" vertex="1" parent="1">
          <mxGeometry x="414" y="630" width="120" height="60" as="geometry" />
        </mxCell>
        <mxCell id="G_c1bbBDKerHP6r1jU-_-13" value="&lt;font color=&quot;#000000&quot; style=&quot;font-size: 20px;&quot;&gt;权限&lt;/font&gt;" style="rounded=1;whiteSpace=wrap;html=1;shadow=1;sketch=1;glass=1;fillColor=#60a917;strokeColor=#2D7600;fontColor=#ffffff;fontSize=20;fontStyle=1" vertex="1" parent="1">
          <mxGeometry x="172" y="330" width="436" height="100" as="geometry" />
        </mxCell>
        <mxCell id="G_c1bbBDKerHP6r1jU-_-14" value="&lt;font color=&quot;#000000&quot;&gt;&lt;b style=&quot;font-size: 31px&quot;&gt;Service&lt;/b&gt;&lt;/font&gt;" style="rounded=1;whiteSpace=wrap;html=1;shadow=1;glass=0;sketch=1;fontColor=#ffffff;fillColor=#0050ef;strokeColor=#001DBC;" vertex="1" parent="1">
          <mxGeometry x="170" y="860" width="440" height="70" as="geometry" />
        </mxCell>
      </root>
    </mxGraphModel>
  </diagram>
</mxfile>
